HIERARCHY
ROOT Hips
{
	OFFSET 0.00000 0.00000 0.00000
	CHANNELS 6 Xposition Yposition Zposition Zrotation Yrotation Xrotation 
	JOINT LHipJoint
	{
		OFFSET 0 0 0
		CHANNELS 3 Zrotation Yrotation Xrotation
		JOINT LeftUpLeg
		{
			OFFSET 1.76014 -1.80163 0.38499
			CHANNELS 3 Zrotation Yrotation Xrotation
			JOINT LeftLeg
			{
				OFFSET 2.46817 -6.78126 0.00000
				CHANNELS 3 Zrotation Yrotation Xrotation
				JOINT LeftFoot
				{
					OFFSET 2.79348 -7.67503 0.00000
					CHANNELS 3 Zrotation Yrotation Xrotation
					JOINT LeftToeBase
					{
						OFFSET 0.09421 -0.25885 1.91403
						CHANNELS 3 Zrotation Yrotation Xrotation
						End Site
						{
							OFFSET 0.00000 -0.00000 0.97975
						}
					}
				}
			}
		}
	}
	JOINT RHipJoint
	{
		OFFSET 0 0 0
		CHANNELS 3 Zrotation Yrotation Xrotation
		JOINT RightUpLeg
		{
			OFFSET -1.77926 -1.80163 0.38499
			CHANNELS 3 Zrotation Yrotation Xrotation
			JOINT RightLeg
			{
				OFFSET -2.51996 -6.92353 0.00000
				CHANNELS 3 Zrotation Yrotation Xrotation
				JOINT RightFoot
				{
					OFFSET -2.76109 -7.58603 0.00000
					CHANNELS 3 Zrotation Yrotation Xrotation
					JOINT RightToeBase
					{
						OFFSET -0.08067 -0.22163 1.86812
						CHANNELS 3 Zrotation Yrotation Xrotation
						End Site
						{
							OFFSET -0.00000 -0.00000 0.95558
						}
					}
				}
			}
		}
	}
	JOINT LowerBack
	{
		OFFSET 0 0 0
		CHANNELS 3 Zrotation Yrotation Xrotation
		JOINT Spine
		{
			OFFSET 0.05537 1.92033 -0.03713
			CHANNELS 3 Zrotation Yrotation Xrotation
			JOINT Spine1
			{
				OFFSET 0.04452 1.90073 0.10860
				CHANNELS 3 Zrotation Yrotation Xrotation
				JOINT Neck
				{
					OFFSET 0 0 0
					CHANNELS 3 Zrotation Yrotation Xrotation
					JOINT Neck1
					{
						OFFSET 0.00903 1.74649 0.02074
						CHANNELS 3 Zrotation Yrotation Xrotation
						JOINT Head
						{
							OFFSET -0.08608 1.67844 -0.12081
							CHANNELS 3 Zrotation Yrotation Xrotation
							End Site
							{
								OFFSET -0.03521 1.83380 -0.05059
							}
						}
					}
				}
				JOINT LeftShoulder
				{
					OFFSET 0 0 0
					CHANNELS 3 Zrotation Yrotation Xrotation
					JOINT LeftArm
					{
						OFFSET 3.28197 0.84325 -0.19106
						CHANNELS 3 Zrotation Yrotation Xrotation
						JOINT LeftForeArm
						{
							OFFSET 5.24318 -0.00000 -0.00000
							CHANNELS 3 Zrotation Yrotation Xrotation
							JOINT LeftHand
							{
								OFFSET 2.98999 -0.00000 0.00000
								CHANNELS 3 Zrotation Yrotation Xrotation
								JOINT LeftFingerBase
								{
									OFFSET 0 0 0
									CHANNELS 3 Zrotation Yrotation Xrotation
									JOINT LeftHandIndex1
									{
										OFFSET 0.72674 -0.00000 0.00000
										CHANNELS 3 Zrotation Yrotation Xrotation
										End Site
										{
											OFFSET 0.58592 -0.00000 0.00000
										}
									}
								}
								JOINT LThumb
								{
									OFFSET 0 0 0
									CHANNELS 3 Zrotation Yrotation Xrotation
									End Site
									{
										OFFSET 0.59487 -0.00000 0.59487
									}
								}
							}
						}
					}
				}
				JOINT RightShoulder
				{
					OFFSET 0 0 0
					CHANNELS 3 Zrotation Yrotation Xrotation
					JOINT RightArm
					{
						OFFSET -3.30963 0.78377 0.14264
						CHANNELS 3 Zrotation Yrotation Xrotation
						JOINT RightForeArm
						{
							OFFSET -5.37045 -0.00000 0.00000
							CHANNELS 3 Zrotation Yrotation Xrotation
							JOINT RightHand
							{
								OFFSET -2.92792 -0.00000 0.00000
								CHANNELS 3 Zrotation Yrotation Xrotation
								JOINT RightFingerBase
								{
									OFFSET 0 0 0
									CHANNELS 3 Zrotation Yrotation Xrotation
									JOINT RightHandIndex1
									{
										OFFSET -0.78450 -0.00000 0.00000
										CHANNELS 3 Zrotation Yrotation Xrotation
										End Site
										{
											OFFSET -0.63248 -0.00000 0.00000
										}
									}
								}
								JOINT RThumb
								{
									OFFSET 0 0 0
									CHANNELS 3 Zrotation Yrotation Xrotation
									End Site
									{
										OFFSET -0.64214 -0.00000 0.64214
									}
								}
							}
						}
					}
				}
			}
		}
	}
}
MOTION
Frames: 13
Frame Time: .0083333
1.3280 15.9766 0.5586 2.7834 -5.0769 14.6419 0.0000 0.0000 0.0000 -23.5683 3.6390 -48.3475 10.8844 17.8780 62.4055 1.4632 -16.9785 -23.1359 0.0861 -1.8929 -5.2098 0.0000 0.0000 0.0000 9.1453 -5.9701 -50.9468 -11.2842 -18.0714 63.7010 0.0406 22.0921 -15.2616 -0.0004 0.1231 -0.3381 7.4197 -2.1702 5.4337 8.1569 -1.3790 -7.3627 4.9435 -0.8622 -11.0497 6.1582 -1.0914 -12.6540 -2.0800 -2.5681 25.0485 -2.0892 -0.8650 9.9374 0.0000 0.0000 0.0000 -36.1156 19.7302 96.9436 89.0683 -59.9967 -59.1931 -0.0000 0.0000 -28.7678 -5.4507 7.3729 -0.7016 -7.1250 0.0000 -0.0000 -26.5811 36.0862 6.4005 0.0000 0.0000 0.0000 -24.2172 -1.7288 -38.4778 -35.9010 45.4449 -15.4519 0.0000 0.0000 35.3741 23.6898 2.6266 1.1519 7.1250 -0.0000 -0.0000 35.6081 -25.6380 20.8598
1.3368 15.9818 0.5671 3.0915 -5.0940 14.6048 0.0000 0.0000 0.0000 -23.9678 3.6195 -48.1799 10.8224 17.8471 62.2033 1.4484 -17.0294 -23.0576 0.0762 -1.7803 -4.8988 0.0000 0.0000 0.0000 8.7685 -6.1027 -50.9361 -11.2838 -18.0712 63.6998 0.0523 22.1523 -15.2168 -0.0002 0.0980 -0.2694 7.3385 -2.1596 5.4394 8.2374 -1.3606 -7.4022 5.0798 -0.8425 -11.0952 6.1448 -1.0569 -12.6321 -2.0768 -2.5182 25.1240 -2.0812 -0.8409 9.9630 0.0000 -0.0000 0.0000 -36.1303 19.8155 97.1819 89.3116 -59.9982 -59.4039 -0.0000 0.0000 -28.6620 -5.5790 7.3368 -0.7147 -7.1250 0.0000 -0.0000 -26.6681 36.0443 6.4563 0.0000 -0.0000 0.0000 -24.2852 -1.7619 -38.6032 -35.8853 45.4340 -15.4407 0.0000 0.0000 35.3541 23.6892 2.7488 1.2054 7.1250 -0.0000 -0.0000 35.5693 -25.5300 20.9439
1.3475 15.9851 0.5735 3.2902 -5.0551 14.5651 0.0000 0.0000 0.0000 -24.2415 3.5888 -48.0253 10.7693 17.8203 62.0301 1.4792 -16.8261 -23.1922 0.1089 -2.1282 -5.8602 0.0000 0.0000 0.0000 8.5217 -6.2836 -50.9174 -11.2860 -18.0722 63.7069 0.0889 22.3020 -15.0493 -0.0003 -0.1131 0.3108 7.4428 -2.1706 5.5071 8.3267 -1.3402 -7.4557 5.1290 -0.8362 -11.2032 6.0294 -1.0173 -12.5691 -1.9371 -2.4711 25.2351 -2.0083 -0.8113 9.9974 -0.0000 0.0000 0.0000 -36.1403 19.9057 97.4373 89.4966 -59.9990 -59.5641 -0.0000 0.0000 -28.6563 -5.7707 7.3347 -0.7392 -7.1250 0.0000 -0.0000 -26.8143 36.0283 6.5108 -0.0000 0.0000 0.0000 -24.3279 -1.7474 -38.6347 -35.8758 45.4274 -15.4339 0.0000 0.0000 35.3945 23.5302 2.7412 1.1930 7.1250 -0.0000 -0.0000 35.4842 -25.5578 20.8354
1.3594 15.9878 0.5812 3.4071 -5.0151 14.5820 0.0000 0.0000 0.0000 -24.4285 3.5697 -47.9442 10.7237 17.7972 61.8810 1.4991 -16.6610 -23.2711 0.1435 -2.4414 -6.7271 0.0000 0.0000 0.0000 8.3675 -6.4310 -50.9395 -11.2875 -18.0729 63.7119 0.1176 22.4571 -14.9474 -0.0010 -0.1992 0.5473 7.6608 -2.1730 5.4706 8.4137 -1.3141 -7.4703 5.1012 -0.8367 -11.2078 6.1012 -0.9629 -12.5650 -1.9561 -2.4085 25.3079 -2.0210 -0.7759 10.0249 -0.0000 0.0000 0.0000 -36.1157 19.9167 97.6795 89.6130 -59.9994 -59.6649 -0.0000 0.0000 -28.6927 -5.8030 7.3446 -0.7443 -7.1250 0.0000 -0.0000 -26.8422 36.0348 6.5142 -0.0000 0.0000 0.0000 -24.3013 -1.7105 -38.7954 -35.8700 45.4234 -15.4298 0.0000 0.0000 35.5577 23.5125 2.8419 1.2357 7.1250 -0.0000 -0.0000 35.4429 -25.4710 20.8931
1.3701 15.9883 0.5905 3.6291 -5.0604 14.6058 0.0000 0.0000 0.0000 -24.7399 3.5774 -47.8743 10.6809 17.7753 61.7408 1.4870 -16.7504 -23.2202 0.1318 -2.3396 -6.4453 0.0000 0.0000 0.0000 8.0729 -6.4953 -50.9950 -11.2959 -18.0769 63.7389 0.1014 22.4466 -15.0624 -0.0001 0.0786 -0.2159 7.7492 -2.1271 5.3000 8.4525 -1.2672 -7.4258 5.0726 -0.8193 -11.0571 6.1705 -0.9397 -12.5471 -1.9452 -2.3926 25.2660 -2.0259 -0.7613 10.0069 -0.0000 0.0000 0.0000 -36.0342 19.7816 97.9109 89.7506 -59.9998 -59.7840 -0.0000 0.0000 -28.7815 -5.7125 7.4939 -0.7475 -7.1250 0.0000 -0.0000 -26.8208 36.1755 6.4048 -0.0000 0.0000 0.0000 -24.2259 -1.7435 -39.0940 -35.8514 45.4106 -15.4166 0.0000 0.0000 35.7852 23.4982 2.9767 1.2934 7.1250 -0.0000 -0.0000 35.3929 -25.3535 20.9762
1.3790 15.9895 0.5987 3.8467 -5.1065 14.6215 0.0000 0.0000 0.0000 -25.0426 3.5942 -47.8119 10.6410 17.7549 61.6101 1.4776 -16.8242 -23.1817 0.1248 -2.2774 -6.2728 0.0000 0.0000 0.0000 7.7855 -6.5125 -51.0251 -11.3043 -18.0808 63.7659 0.0753 22.3595 -15.1953 -0.0026 0.3268 -0.8979 7.8173 -2.0838 5.1511 8.4835 -1.2228 -7.3946 5.0499 -0.8016 -10.9342 6.2276 -0.9106 -12.5141 -1.8912 -2.3765 25.2451 -2.0137 -0.7424 9.9947 -0.0000 0.0000 0.0000 -35.8587 19.6992 98.1909 89.9516 -60.0000 -59.9581 -0.0000 0.0000 -28.9235 -5.4642 7.4689 -0.7124 -7.1250 0.0000 -0.0000 -26.6220 36.1715 6.3505 -0.0000 0.0000 0.0000 -24.1213 -1.7640 -39.3136 -35.8870 45.4352 -15.4419 0.0000 0.0000 35.9037 23.4800 3.0060 1.3050 7.1250 -0.0000 -0.0000 35.3738 -25.3300 20.9844
1.3870 15.9915 0.6059 3.9319 -5.1087 14.6240 0.0000 0.0000 0.0000 -25.1928 3.6297 -47.7453 10.6026 17.7351 61.4840 1.4948 -16.7096 -23.2575 0.1549 -2.5359 -6.9891 0.0000 0.0000 0.0000 7.6431 -6.5102 -50.9989 -11.3109 -18.0839 63.7871 0.1044 22.4788 -15.0640 -0.0001 0.0569 -0.1562 7.9840 -2.0956 5.0902 8.5508 -1.2295 -7.3412 5.0251 -0.8142 -10.8426 6.4414 -0.8113 -12.7184 -1.9252 -2.2980 25.4188 -2.0586 -0.6852 10.0987 -0.0000 -0.0000 0.0000 -35.6802 19.7102 98.3663 90.1480 -59.9999 -60.1282 -0.0000 0.0000 -29.0786 -5.2527 7.3979 -0.6782 -7.1250 0.0000 -0.0000 -26.4369 36.1233 6.3321 -0.0000 -0.0000 0.0000 -23.9672 -1.7050 -39.5147 -35.9181 45.4567 -15.4641 0.0000 0.0000 35.8929 23.4265 2.9778 1.2894 7.1250 -0.0000 -0.0000 35.3531 -25.3620 20.9303
1.3972 15.9913 0.6127 4.1779 -5.0761 14.6524 0.0000 0.0000 0.0000 -25.5174 3.5514 -47.6637 10.5570 17.7114 61.3343 1.5142 -16.5568 -23.3366 0.1845 -2.7664 -7.6290 0.0000 0.0000 0.0000 7.3393 -6.6501 -51.0633 -11.3252 -18.0906 63.8332 0.1086 22.5337 -15.0736 -0.0003 0.1093 -0.3003 7.9861 -2.1554 4.9958 8.6135 -1.3235 -7.2916 5.0966 -0.8562 -10.7258 6.5945 -0.6930 -12.9906 -1.9418 -2.1898 25.6213 -2.0849 -0.6172 10.2294 0.0000 -0.0000 0.0000 -35.5698 19.7807 98.4014 90.3636 -59.9995 -60.3149 -0.0000 0.0000 -29.1583 -5.2098 7.3622 -0.6694 -7.1250 0.0000 -0.0000 -26.3925 36.0943 6.3402 0.0000 -0.0000 0.0000 -23.8538 -1.5593 -39.7869 -35.9749 45.4958 -15.5046 0.0000 0.0000 35.8908 23.5087 2.9732 1.2925 7.1250 -0.0000 -0.0000 35.3998 -25.3552 20.9807
1.4100 15.9934 0.6196 4.5626 -4.9682 14.6354 0.0000 0.0000 0.0000 -25.9879 3.4213 -47.4926 10.5018 17.6825 61.1528 1.5095 -16.5460 -23.3041 0.1864 -2.7810 -7.6696 0.0000 0.0000 0.0000 6.8810 -6.9158 -51.0917 -11.3418 -18.0983 63.8866 0.1420 22.6769 -14.9289 -0.0005 -0.1370 0.3765 7.9033 -2.2158 4.8839 8.6500 -1.4285 -7.2644 5.1876 -0.8983 -10.6198 6.5439 -0.6319 -13.0959 -1.7888 -2.1436 25.7217 -2.0196 -0.5800 10.2926 0.0000 0.0000 0.0000 -35.4629 19.7904 98.5765 90.5012 -59.9991 -60.4340 -0.0000 0.0000 -28.9652 -4.9759 7.1825 -0.6237 -7.1250 0.0000 -0.0000 -26.1560 35.9494 6.3751 0.0000 0.0000 0.0000 -23.8206 -1.4864 -39.9599 -36.0142 45.5229 -15.5326 0.0000 0.0000 35.8161 23.5922 2.9392 1.2829 7.1250 -0.0000 -0.0000 35.4563 -25.3742 21.0118
1.4207 15.9974 0.6281 4.9264 -4.8794 14.5980 0.0000 0.0000 0.0000 -26.4320 3.3379 -47.2851 10.4426 17.6513 60.9577 1.4803 -16.7268 -23.1707 0.1519 -2.5118 -6.9224 0.0000 0.0000 0.0000 6.4400 -7.1445 -51.0762 -11.3581 -18.1059 63.9392 0.1500 22.7645 -14.9354 -0.0002 -0.0959 0.2636 7.8091 -2.2522 4.7739 8.6995 -1.4992 -7.2520 5.2960 -0.9226 -10.5321 6.5466 -0.5838 -13.0758 -1.7231 -2.0945 25.7715 -1.9914 -0.5480 10.3109 0.0000 -0.0000 0.0000 -35.4042 19.8234 98.8950 90.4080 -59.9994 -60.3533 -0.0000 0.0000 -28.5469 -4.4802 6.8991 -0.5393 -7.1250 0.0000 -0.0000 -25.6871 35.7288 6.3923 0.0000 -0.0000 0.0000 -23.8170 -1.4339 -40.0342 -35.9987 45.5122 -15.5215 0.0000 0.0000 35.7992 23.5216 2.8720 1.2493 7.1250 -0.0000 -0.0000 35.4385 -25.4431 20.9197
1.4291 16.0005 0.6366 5.1976 -4.8369 14.5050 0.0000 0.0000 0.0000 -26.7742 3.3367 -47.0618 10.3940 17.6255 60.7972 1.4874 -16.7265 -23.2153 0.1605 -2.5811 -7.1145 0.0000 0.0000 0.0000 6.0936 -7.2791 -50.9755 -11.3671 -18.1101 63.9680 0.1303 22.7389 -15.0647 -0.0001 0.0619 -0.1701 7.7676 -2.2692 4.7926 8.7663 -1.5190 -7.2355 5.3960 -0.9252 -10.5217 6.5360 -0.5399 -13.0506 -1.6562 -2.0478 25.8184 -1.9606 -0.5183 10.3270 -0.0000 0.0000 0.0000 -35.4103 19.8632 99.0902 90.3522 -59.9995 -60.3050 -0.0000 0.0000 -28.2629 -4.5177 6.8832 -0.5425 -7.1250 0.0000 -0.0000 -25.7110 35.7117 6.4113 -0.0000 0.0000 0.0000 -23.8029 -1.4054 -40.0265 -36.0444 45.5437 -15.5542 0.0000 0.0000 35.7526 23.5186 2.8051 1.2201 7.1250 -0.0000 -0.0000 35.4578 -25.5028 20.8718
1.4366 16.0021 0.6420 5.3637 -4.8035 14.4900 0.0000 0.0000 0.0000 -26.9889 3.3037 -46.9620 10.3614 17.6081 60.6895 1.4858 -16.6856 -23.1938 0.1627 -2.5987 -7.1635 0.0000 0.0000 0.0000 5.8658 -7.3013 -50.9347 -11.3677 -18.1104 63.9700 0.1055 22.6499 -15.1842 -0.0011 0.2118 -0.5819 7.8307 -2.2751 4.8046 8.8437 -1.5091 -7.2559 5.4493 -0.9213 -10.5552 6.4644 -0.5219 -13.0712 -1.5094 -2.0509 25.9452 -1.8990 -0.5059 10.3810 0.0000 -0.0000 0.0000 -35.3291 19.9099 99.2721 90.5116 -59.9990 -60.4430 -0.0000 0.0000 -28.1890 -4.7149 6.9551 -0.5722 -7.1250 0.0000 -0.0000 -25.8849 35.7628 6.4271 0.0000 -0.0000 0.0000 -23.7532 -1.3798 -39.8830 -36.1247 45.5987 -15.6115 0.0000 0.0000 35.6040 23.5437 2.7119 1.1810 7.1250 -0.0000 -0.0000 35.5009 -25.5820 20.8240
1.4429 16.0033 0.6406 5.3167 -4.7101 14.5684 0.0000 0.0000 0.0000 -26.9380 3.1840 -47.0170 10.3463 17.6001 60.6398 1.4462 -16.7989 -22.9754 0.1297 -2.3219 -6.3960 0.0000 0.0000 0.0000 5.8933 -7.1965 -50.9430 -11.3573 -18.1055 63.9366 0.1041 22.6047 -15.1606 -0.0000 0.0370 -0.1015 8.1258 -2.2667 4.7856 8.9918 -1.4482 -7.3304 5.4504 -0.9075 -10.6440 6.3340 -0.5486 -12.8999 -1.3799 -2.0814 25.9836 -1.8332 -0.5167 10.3637 0.0000 -0.0000 0.0000 -35.2147 19.9329 99.6009 90.6850 -59.9982 -60.5932 -0.0000 0.0000 -28.2314 -4.5332 6.9901 -0.5528 -7.1250 0.0000 -0.0000 -25.7558 35.8073 6.3579 0.0000 -0.0000 0.0000 -23.7380 -1.4348 -39.5468 -36.2443 45.6805 -15.6970 0.0000 0.0000 35.4413 23.5998 2.5562 1.1162 7.1250 -0.0000 -0.0000 35.5810 -25.7124 20.7528
